<svg viewBox="7 12 16 14" fill="none" xmlns="http://www.w3.org/2000/svg">
  <path fill-rule="evenodd" clip-rule="evenodd" d="M20.75 12C21.9926 12 23 13.0447 23 14.3333V23.6667C23 24.9553 21.9926 26 20.75 26H9.25C8.00736 26 7 24.9553 7 23.6667V14.3333C7 13.0447 8.00736 12 9.25 12H20.75ZM10.375 14.3333C9.75368 14.3333 9.25 14.8557 9.25 15.5V22.5C9.25 23.1443 9.75368 23.6667 10.375 23.6667H17.375C17.9963 23.6667 18.5 23.1443 18.5 22.5V15.5C18.5 14.8557 17.9963 14.3333 17.375 14.3333H10.375Z" fill="#FFFFFF"/>
</svg>
